{"title":"The Hunters 2013 BRRip x264 AC3-MiLLENiUM","uid":10866454,"size":925369692,"categoryP":"video","categoryS":"movies","magnet":"?xt=urn:btih:d231b659c318aae6d3fbca6e389f8466fc36f27d&amp;dn=The+Hunters+2013+BRRip+x264+AC3-MiLLENiUM&amp;tr=udp%3A%2F%2Ftracker.openbittorrent.com%3A80&amp;tr=udp%3A%2F%2Fopen.demonii.com%3A1337&amp;tr=udp%3A%2F%2Ftracker.coppersurfer.tk%3A6969&amp;tr=udp%3A%2F%2Fexodus.desync.com%3A6969","seeders":5,"leechers":0,"uploader":"xxxlavalxxx","files":-1,"time":1408920631,"description":"[IMG]http://i.imgur.com/B1ALg8v.jpg[/IMG]\n\n &lt;a href=&quot;\nhttp://www.imdb.com/title/tt2963232/&quot; rel=&quot;nofollow&quot; target=&quot;_NEW&quot;&gt;\nhttp://www.imdb.com/title/tt2963232/&lt;/a&gt;\n\n\nA family of archeologists hunt down artifacts from fairy tales that have been hidden around the globe.\n\nDirector: Nisha Ganatra\nWriters: Matthew Huffman (screenplay), Matthew Huffman (story)\nStars: Robbie Amell, Alexa PenaVega, Victor Garber\nGenres: Adventure\nCountry: USA\nLanguage: English\n\n\n\nSource: 1080p BluRay DTS-HDMA x264-AKATSUKi [THANKS]\nIMDb Information: http://www.imdb.com/title/tt2963232/\nSample Included: yes\n\nGeneral\nComplete name: The Hunters 2013 BRRip x264 AC3-MiLLENiUM.mkv\nFormat: Matroska\nFormat version: Version 2\nFile size: 862 MiB\nDuration: 1h 29mn\nOverall bit rate mode: Variable\nOverall bit rate: 1 352 Kbps\nEncoded date: UTC 2014-08-24 17:25:44\nWriting application: mkvmerge v7.1.0 ('Good Love') 32bit built on Jul 27 2014 12:59:18\nWriting library: libebml v1.3.0 + libmatroska v1.4.1\n\nVideo\nID: 1\nFormat: AVC\nFormat/Info: Advanced Video Codec\nFormat profile: &lt;a class=&quot;__cf_email__&quot; href=&quot;/cdn-cgi/l/email-protection&quot; data-cfemail=&quot;ca82a3ada28a86fee4fb&quot;&gt;[email&amp;#160;protected]&lt;/a&gt;&lt;script cf-hash='f9e31' type=&quot;text/javascript&quot;&gt;\n/* &lt;![CDATA[ */!function(){try{var t=&quot;currentScript&quot;in document?document.currentScript:function(){for(var t=document.getElementsByTagName(&quot;script&quot;),e=t.length;e--;)if(t[e].getAttribute(&quot;cf-hash&quot;))return t[e]}();if(t&amp;&amp;t.previousSibling){var e,r,n,i,c=t.previousSibling,a=c.getAttribute(&quot;data-cfemail&quot;);if(a){for(e=&quot;&quot;,r=parseInt(a.substr(0,2),16),n=2;a.length-n;n+=2)i=parseInt(a.substr(n,2),16)^r,e+=String.fromCharCode(i);e=document.createTextNode(e),c.parentNode.replaceChild(e,c)}}}catch(u){}}();/* ]]&gt; */&lt;/script&gt;\nFormat settings, CABAC: Yes\nFormat settings, ReFrames: 3 frames\nCodec ID: V_MPEG4/ISO/AVC\nDuration: 1h 29mn\nBit rate mode: Variable\nBit rate: 877 Kbps\nMaximum bit rate: 40.0 Mbps\nWidth: 720 pixels\nHeight: 400 pixels\nDisplay aspect ratio: 16:9\nFrame rate mode: Constant\nFrame rate: 23.976 fps\nColor space: YUV\nChroma subsampling: 4:2:0\nBit depth: 8 bits\nScan type: Progressive\nBits/(Pixel*Frame): 0.127\nStream size: 559 MiB (65%)\nWriting library: x264 core 142 r2453 ea0ca51\n\nAudio\nID: 2\nFormat: AC-3\nFormat/Info: Audio Coding 3\nMode extension: CM (complete main)\nFormat settings, Endianness: Big\nCodec ID: A_AC3\nDuration: 1h 29mn\nBit rate mode: Constant\nBit rate: 448 Kbps\nChannel(s): 6 channels\nChannel positions: Front: L C R, Side: L R, LFE\nSampling rate: 48.0 KHz\nBit depth: 16 bits\nCompression mode: Lossy\nStream size: 286 MiB (33%)\nLanguage: English\nDefault: Yes\n\n\nscreens\n &lt;a href=&quot;\nhttp://i.imgur.com/5Ly7Qu8.png&quot; rel=&quot;nofollow&quot; target=&quot;_NEW&quot;&gt;\nhttp://i.imgur.com/5Ly7Qu8.png&lt;/a&gt; &lt;a href=&quot;\nhttp://i.imgur.com/3D1zdgu.png&quot; rel=&quot;nofollow&quot; target=&quot;_NEW&quot;&gt;\nhttp://i.imgur.com/3D1zdgu.png&lt;/a&gt; &lt;a href=&quot;\nhttp://i.imgur.com/6x6Xztd.png&quot; rel=&quot;nofollow&quot; target=&quot;_NEW&quot;&gt;\nhttp://i.imgur.com/6x6Xztd.png&lt;/a&gt; &lt;a href=&quot;\nhttp://i.imgur.com/axNsG6C.png&quot; rel=&quot;nofollow&quot; target=&quot;_NEW&quot;&gt;\nhttp://i.imgur.com/axNsG6C.png&lt;/a&gt; &lt;a href=&quot;\nhttp://i.imgur.com/R2mCFlB.png&quot; rel=&quot;nofollow&quot; target=&quot;_NEW&quot;&gt;\nhttp://i.imgur.com/R2mCFlB.png&lt;/a&gt;","torrent":{"xt":"urn:btih:d231b659c318aae6d3fbca6e389f8466fc36f27d","amp;dn":"The+Hunters+2013+BRRip+x264+AC3-MiLLENiUM","amp;tr":["udp%3A%2F%2Ftracker.openbittorrent.com%3A80","udp%3A%2F%2Fopen.demonii.com%3A1337","udp%3A%2F%2Ftracker.coppersurfer.tk%3A6969","udp%3A%2F%2Fexodus.desync.com%3A6969"],"infoHash":"d231b659c318aae6d3fbca6e389f8466fc36f27d","infoHashBuffer":{"type":"Buffer","data":[210,49,182,89,195,24,170,230,211,251,202,110,56,159,132,102,252,54,242,125]},"announce":[],"urlList":[]}}